# xmcd
#
# Track frame offsets:
#	150
#	22932
#	44666
#	64646
#	81592
#	105113
#	124165
#	145064
#	166943
#	184772
#	207049
#	230677
#
# Disc length: 3391 seconds
#
# Revision: 1
# Processed by: cddbd v1.5PL3 Copyright (c) Steve Scherf et al.
# Submitted via: EasyCDDAExtractor 7.0.5.1
#
DISCID=9c0d3d0c
DTITLE=Jimmy Rogers - Blues Blues Blues
DYEAR=1998
DGENRE=Blues
TTITLE0=Blow Wind Blow
TTITLE1=Blues All Day Long
TTITLE2=Trouble No More
TTITLE3=Brights Lights Big City
TTITLE4=Everyday I Have The Blues
TTITLE5=Sweet Home Chicago
TTITLE6=Don't Start Me to Talkin'
TTITLE7=That's All Right
TTITLE8=Ludella
TTITLE9=Goin' Away Baby
TTITLE10=Worried Life Blues
TTITLE11=Gonna Shoot You Right Down
EXTD=
EXTT0=
EXTT1=
EXTT2=
EXTT3=
EXTT4=
EXTT5=
EXTT6=
EXTT7=
EXTT8=
EXTT9=
EXTT10=
EXTT11=
PLAYORDER=
